<svg width="100" height="100" viewBox="0 0 100 100" fill="none" xmlns="http://www.w3.org/2000/svg">
<path d="M25.251 21.2512C38.9193 7.5829 61.0807 7.5829 74.749 21.2512C88.4172 34.9195 88.4171 57.08 74.749 70.7483L52.3799 93.1175C51.0656 94.4317 48.9344 94.4317 47.6201 93.1175L25.251 70.7483C11.5831 57.08 11.583 34.9195 25.251 21.2512ZM79.0332 44.4895C77.998 44.473 77.1334 45.2467 77.0146 46.2532L77.001 46.4583L76.9756 47.2903C76.78 51.4544 75.6137 55.6363 73.3828 59.5003C71.1519 63.3641 68.1138 66.4648 64.6055 68.7161L63.8974 69.1546C62.9502 69.7222 62.6416 70.9512 63.209 71.8987C63.7411 72.7867 64.8538 73.112 65.7715 72.6819L65.9521 72.5862C70.3284 69.9654 74.1182 66.2258 76.8467 61.5003C79.4046 57.0699 80.7448 52.2647 80.9697 47.4788L81 46.5218L80.9931 46.3177C80.9069 45.3076 80.0685 44.5062 79.0332 44.4895ZM71.0322 44.3557C69.9972 44.3395 69.1332 45.112 69.0146 46.1184L69.001 46.3235L68.9824 46.9085C68.8448 49.838 68.0244 52.7804 66.4541 55.5003C64.8838 58.2199 62.7464 60.4009 60.2783 61.9846L59.7803 62.2942C58.8331 62.8618 58.5245 64.0899 59.0918 65.0374C59.6238 65.9255 60.7366 66.2516 61.6543 65.8216L61.8349 65.7249C65.0825 63.78 67.895 61.0057 69.9189 57.5003C71.8163 54.2139 72.8116 50.6484 72.9785 47.097L73 46.387L72.9931 46.1819C72.9067 45.172 72.0675 44.3723 71.0322 44.3557ZM50 31.0003C41.7158 31.0003 35 37.716 35 46.0003C35.0002 54.2843 41.7159 61.0002 50 61.0003C58.2841 61.0003 64.9998 54.2843 65 46.0003C65 37.716 58.2843 31.0003 50 31.0003ZM40.9082 26.9632C40.3762 26.0748 39.2635 25.7479 38.3457 26.178L38.165 26.2747C34.9175 28.2196 32.1049 30.9948 30.081 34.5003C28.1839 37.7864 27.1884 41.3514 27.0215 44.9026L27 45.6126L27.0068 45.8177C27.0932 46.8275 27.9325 47.6282 28.9678 47.6448C30.0029 47.6611 30.8668 46.8877 30.9853 45.8811L30.999 45.677L31.0176 45.0911C31.1551 42.1616 31.9757 39.2201 33.5459 36.5003C35.1162 33.7804 37.2534 31.5988 39.7217 30.0149L40.2197 29.7063C41.1671 29.1389 41.4752 27.9107 40.9082 26.9632ZM36.791 20.1009C36.2589 19.2128 35.1462 18.8876 34.2285 19.3177L34.0469 19.4134C29.6706 22.0343 25.8817 25.7746 23.1533 30.5003C20.5955 34.9306 19.2542 39.735 19.0293 44.5208L18.999 45.4778L19.0068 45.6819C19.0931 46.6918 19.9315 47.4933 20.9668 47.51C22.0019 47.5265 22.8656 46.7528 22.9844 45.7464L22.998 45.5413L23.0244 44.7093C23.2199 40.5453 24.3864 36.3642 26.6172 32.5003C28.8481 28.6363 31.8861 25.5349 35.3945 23.2835L36.1015 22.845C37.0492 22.2775 37.3585 21.0485 36.791 20.1009Z" fill="black"/>
</svg>
