<svg width="16" height="16" viewBox="0 0 16 16" fill="none" xmlns="http://www.w3.org/2000/svg">
<path d="M13 1.5L13.1006 1.50977C13.3286 1.55629 13.5 1.75829 13.5 2V10C13.5 10.2761 13.2761 10.5 13 10.5H6.20703L3.35352 13.3535C3.21052 13.4965 2.99543 13.5393 2.80859 13.4619C2.62179 13.3845 2.5 13.2022 2.5 13V10.5H1C0.723858 10.5 0.5 10.2761 0.5 10V2L0.509766 1.89941C0.556292 1.67145 0.758287 1.5 1 1.5H13ZM1.5 9.5H3C3.27614 9.5 3.5 9.72386 3.5 10V11.793L5.64648 9.64648L5.72266 9.58398C5.80419 9.52963 5.90056 9.5 6 9.5H12.5V2.5H1.5V9.5Z" fill="#1F1F21"/>
<path d="M15.5 4V12C15.5 12.2761 15.2761 12.5 15 12.5H13.5V15C13.5 15.2022 13.3782 15.3845 13.1914 15.4619C13.0046 15.5393 12.7895 15.4965 12.6465 15.3535L9.79297 12.5H6V11.5H10C10.1326 11.5 10.2597 11.5527 10.3535 11.6465L12.5 13.793V12C12.5 11.7239 12.7239 11.5 13 11.5H14.5V4H15.5Z" fill="#1F1F21"/>
</svg>
