<svg width="242" height="80" viewBox="0 0 242 80" fill="none" xmlns="http://www.w3.org/2000/svg">
<path fill-rule="evenodd" clip-rule="evenodd" d="M52 10H42V20H12V30H35.662C30.9841 42.1187 21.7212 51.9574 10 57.3894V68.2224C23.7798 63.0731 35.1592 53.003 42 40.1501V70H52V30H62V20H52V10ZM155 10V20C155 22.2127 154.997 24.203 154.987 26H125V36H154.762C154.567 39.4103 154.217 41.4842 153.597 43.257C151.084 50.4381 145.438 56.0843 138.257 58.5971C135.879 59.4291 132.96 59.7739 127 59.9122V69.9238C133.535 69.7749 137.847 69.3351 141.56 68.0359C151.613 64.518 159.518 56.6134 163.036 46.5598C164.05 43.6621 164.54 40.3996 164.778 36H175V26H164.993C165 24.1532 165 22.1601 165 20V10H155ZM194 10V26H230V36H194.01C194.039 42.4263 194.16 47.0185 194.643 50.613C195.226 54.9504 196.168 56.3098 196.929 57.0711C197.69 57.8323 199.05 58.7738 203.387 59.3569C208.012 59.9788 214.289 60 224 60C226.561 60 228.884 59.9985 231 59.9849V69.9865C228.823 70 226.494 70 224 70C205.144 70 195.716 70 189.858 64.1421C184 58.2843 184 48.8562 184 30V10L194 10ZM224 10H218V20H224V10ZM226 10H232V20H226V10ZM76 10H86V34.582C87.6016 34.4624 89.2339 34.4701 90.8858 34.6147L116 36.8119V46.8501L90.0143 44.5766C88.6515 44.4574 87.3087 44.4778 86 44.6259V70H76V10Z" fill="#1F1F21"/>
</svg>
