<svg width="16" height="16" viewBox="0 0 16 16" fill="none" xmlns="http://www.w3.org/2000/svg">
<path fill-rule="evenodd" clip-rule="evenodd" d="M12.1846 9.1149C12.7081 8.1552 13 7.2639 13 6.5C13 3.73858 10.7614 1.5 8 1.5C5.23858 1.5 3 3.73858 3 6.5C3 7.2639 3.29192 8.1552 3.8154 9.1149C4.33283 10.0635 5.03555 11.0049 5.75926 11.8492C6.48019 12.6903 7.20412 13.4145 7.74912 13.9292C7.83794 14.0131 7.92183 14.0913 8 14.1633C8.07817 14.0913 8.16206 14.0131 8.25088 13.9292C8.79588 13.4145 9.51981 12.6903 10.2407 11.8492C10.9645 11.0049 11.6672 10.0635 12.1846 9.1149ZM8 15.5C8 15.5 14 10.5 14 6.5C14 3.18629 11.3137 0.5 8 0.5C4.68629 0.5 2 3.18629 2 6.5C2 10.5 8 15.5 8 15.5Z" fill="#1F1F21"/>
<path fill-rule="evenodd" clip-rule="evenodd" d="M8 8.5C9.10457 8.5 10 7.60457 10 6.5C10 5.39543 9.10457 4.5 8 4.5C6.89543 4.5 6 5.39543 6 6.5C6 7.60457 6.89543 8.5 8 8.5ZM8 9.5C9.65685 9.5 11 8.15685 11 6.5C11 4.84315 9.65685 3.5 8 3.5C6.34315 3.5 5 4.84315 5 6.5C5 8.15685 6.34315 9.5 8 9.5Z" fill="#1F1F21"/>
</svg>
