<svg width="16" height="16" viewBox="0 0 16 16" fill="none" xmlns="http://www.w3.org/2000/svg">
<path fill-rule="evenodd" clip-rule="evenodd" d="M10.5355 10.5355C12.4882 8.58291 12.4882 5.41708 10.5355 3.46446C8.58291 1.51184 5.41709 1.51184 3.46447 3.46446C1.51184 5.41708 1.51184 8.58291 3.46447 10.5355C5.41709 12.4882 8.58291 12.4882 10.5355 10.5355ZM11.2426 11.2426C13.5858 8.89949 13.5858 5.1005 11.2426 2.75736C8.89949 0.41421 5.1005 0.41421 2.75736 2.75736C0.414213 5.1005 0.414213 8.89949 2.75736 11.2426C5.1005 13.5858 8.89949 13.5858 11.2426 11.2426Z" fill="#1F1F21"/>
<path d="M10.182 10.8891L10.8891 10.182L15.1317 14.4246L14.4246 15.1317L10.182 10.8891Z" fill="#1F1F21"/>
</svg>
