<svg width="24" height="22" viewBox="0 0 24 22" fill="none" xmlns="http://www.w3.org/2000/svg">
<path d="M22.5 0.25L22.6509 0.264648C22.9928 0.334438 23.25 0.63743 23.25 1V16C23.25 16.4142 22.9142 16.75 22.5 16.75H9.31055L5.03027 21.0303C4.81577 21.2448 4.49315 21.309 4.21289 21.1929C3.93269 21.0768 3.75 20.8033 3.75 20.5V16.75H1.5C1.08579 16.75 0.75 16.4142 0.75 16V1L0.764648 0.849121C0.834438 0.507171 1.13743 0.25 1.5 0.25H22.5ZM2.25 15.25H4.5C4.91421 15.25 5.25 15.5858 5.25 16V18.6895L8.46973 15.4697L8.58398 15.376C8.70628 15.2944 8.85085 15.25 9 15.25H21.75V1.75H2.25V15.25Z" fill="#1F1F21"/>
</svg>
