<svg width="25" height="28" viewBox="0 0 25 28" fill="none" xmlns="http://www.w3.org/2000/svg">
<path d="M4.22095 3.44068C8.76561 -1.10399 16.1342 -1.10386 20.679 3.44068C25.2237 7.9854 25.2237 15.354 20.679 19.8987L13.2415 27.3362C12.8045 27.7732 12.0954 27.7732 11.6585 27.3362L4.22095 19.8987C-0.323587 15.3539 -0.323713 7.98534 4.22095 3.44068ZM22.1038 11.1682C21.7597 11.1628 21.4724 11.4196 21.4329 11.7542L21.428 11.8225L21.4202 12.0989C21.3551 13.4834 20.9665 14.8737 20.2249 16.1584C19.4832 17.4431 18.4733 18.4743 17.3069 19.2229L17.0715 19.3694C16.7566 19.5581 16.6534 19.9665 16.842 20.2815C17.019 20.5767 17.3895 20.6852 17.6946 20.5422L17.7551 20.51C19.2101 19.6386 20.4701 18.3946 21.3772 16.8235C22.2275 15.3506 22.6734 13.7534 22.7483 12.1624L22.7581 11.844L22.7561 11.7756C22.7274 11.4399 22.4479 11.1739 22.1038 11.1682ZM19.4436 11.1233C19.0995 11.1179 18.8122 11.3747 18.7727 11.7092L18.7688 11.7776L18.762 11.9719C18.7162 12.9459 18.4432 13.9241 17.9211 14.8284C17.3992 15.7325 16.6888 16.458 15.8684 16.9846L15.7024 17.0881C15.3875 17.2769 15.2853 17.6852 15.4739 18.0002C15.6509 18.2951 16.0205 18.4038 16.3254 18.261L16.386 18.2288C17.4657 17.5821 18.4006 16.6588 19.0735 15.4934C19.7042 14.4008 20.0356 13.2151 20.0911 12.0344L20.0979 11.7991L20.096 11.7307C20.0673 11.395 19.7877 11.1289 19.4436 11.1233ZM12.4504 6.68286C9.69592 6.68286 7.46314 8.91565 7.46314 11.6702C7.46324 14.4246 9.69598 16.6575 12.4504 16.6575C15.2048 16.6573 17.4376 14.4245 17.4377 11.6702C17.4377 8.91575 15.2048 6.68303 12.4504 6.68286ZM9.427 5.34009C9.2501 5.04499 8.88048 4.93654 8.57544 5.07935L8.5149 5.11157C7.43529 5.7582 6.50027 6.68061 5.8274 7.84595C5.19657 8.93857 4.86536 10.1242 4.80982 11.3049L4.80298 11.5413L4.80493 11.6096C4.83375 11.9453 5.1131 12.2115 5.45728 12.217C5.80131 12.2223 6.08878 11.9647 6.12818 11.6301L6.13208 11.5627L6.13892 11.3674C6.18473 10.3935 6.45769 9.41521 6.97974 8.51099C7.50182 7.6069 8.21198 6.88129 9.03247 6.35474L9.19849 6.2522C9.51326 6.06348 9.61543 5.65505 9.427 5.34009ZM8.05884 3.05884C7.88197 2.76356 7.51143 2.65519 7.2063 2.7981L7.14575 2.83032C5.69085 3.70172 4.4308 4.94481 3.52368 6.51587C2.67322 7.98892 2.2274 9.58673 2.15259 11.178L2.14283 11.4963L2.14478 11.5647C2.17362 11.9004 2.45299 12.1666 2.79712 12.1721C3.14093 12.1773 3.42836 11.9204 3.46802 11.5862L3.4729 11.5178L3.48072 11.2405C3.54579 9.85605 3.93433 8.46557 4.67603 7.18091C5.41778 5.89634 6.42757 4.86495 7.594 4.11646L7.82935 3.97095C8.14408 3.78227 8.24712 3.37378 8.05884 3.05884Z" fill="white"/>
</svg>
