<svg width="62" height="20" viewBox="0 0 62 20" fill="none" xmlns="http://www.w3.org/2000/svg">
<path fill-rule="evenodd" clip-rule="evenodd" d="M49.4008 2.5V6.5H58.4752V9H49.4033C49.4108 10.6066 49.4411 11.7546 49.5629 12.6532C49.7099 13.7376 49.9473 14.0775 50.1391 14.2678C50.331 14.4581 50.6737 14.6934 51.767 14.8392C52.9328 14.9947 54.5151 15 56.9628 15C57.6085 15 58.1939 14.9996 58.7273 14.9962V17.4966C58.1784 17.5 57.5914 17.5 56.9628 17.5C52.2098 17.5 49.8333 17.5 48.3568 16.0355C46.8802 14.5711 46.8802 12.214 46.8802 7.5V2.5H49.4008ZM56.9628 2.5H55.4504V5H56.9628V2.5ZM57.467 2.5H58.9794V5H57.467V2.5ZM39.5703 2.5V5C39.5703 5.55317 39.5695 6.05075 39.5671 6.5H32.0083V9H39.5103C39.4611 9.85257 39.373 10.3711 39.2167 10.8142C38.5833 12.6095 37.1601 14.0211 35.3499 14.6493C34.7506 14.8573 34.0146 14.9435 32.5124 14.9781V17.4809C34.1597 17.4437 35.2466 17.3338 36.1825 17.009C38.7166 16.1295 40.7091 14.1534 41.5959 11.6399C41.8514 10.9155 41.9751 10.0999 42.0349 9H44.6116V6.5H42.0891C42.0909 6.03831 42.0909 5.54004 42.0909 5V2.5H39.5703ZM13.6075 2.5H11.0868V5H3.52482V7.5H9.48922C8.31008 10.5297 5.97521 12.9893 3.02069 14.3474V17.0556C6.49411 15.7683 9.36246 13.2508 11.0868 10.0375V17.5H13.6075V7.5H16.1281V5H13.6075V2.5ZM19.6571 2.5H22.1777V8.6455C22.5814 8.6156 22.9929 8.61754 23.4093 8.65367L29.7397 9.20297V11.7125L23.1896 11.1442C22.8461 11.1143 22.5076 11.1194 22.1777 11.1565V17.5H19.6571V2.5Z" fill="#FEFCF6"/>
</svg>
