<svg width="134" height="40" viewBox="0 0 134 40" fill="none" xmlns="http://www.w3.org/2000/svg">
<path d="M109.837 14.5557H123.802V18.0557H109.841C109.85 20.7598 109.889 22.6577 110.086 24.127C110.313 25.8135 110.678 26.3426 110.973 26.6387C111.268 26.9347 111.796 27.6902 113.479 27.917C115.273 28.1587 117.708 28.167 121.475 28.167C122.627 28.167 123.655 28.1642 124.578 28.1562V31.6572C123.623 31.6653 122.592 31.667 121.475 31.667C114.16 31.667 110.502 31.6667 108.23 29.3887C105.958 27.1106 105.958 23.444 105.958 16.1113V8.33301H109.837V14.5557ZM121.475 12.2227H119.147V8.33301H121.475V12.2227ZM124.578 12.2227H122.25V8.33301H124.578V12.2227Z" fill="white"/>
<path d="M98.1995 12.2227C98.1995 13.0626 98.1984 13.8376 98.1956 14.5557H102.078V18.0557H98.1321C98.0483 19.966 97.8602 21.3403 97.4377 22.5508C96.0731 26.4605 93.0066 29.5342 89.1067 30.9023C87.5244 31.4574 85.6616 31.607 82.6829 31.6484V28.1455C85.528 28.1035 86.8053 27.9789 87.8254 27.6211C90.6111 26.6439 92.8019 24.0593 93.7766 21.2666C94.0399 20.5123 94.1736 19.6176 94.2444 18.0557H82.6829V14.5557H94.3147C94.3184 13.8569 94.3206 13.083 94.3206 12.2227V8.33301H98.1995V12.2227Z" fill="white"/>
<path d="M68.3301 17.8984C68.9512 17.8513 69.5839 17.8491 70.2246 17.9053L79.9678 18.7607V22.2754L69.8867 21.3906C69.3582 21.3443 68.8376 21.3597 68.3301 21.4277V31.667H64.4512V8.33301H68.3301V17.8984Z" fill="white"/>
<path d="M55.917 12.2227H59.7959V15.7227H55.917V31.667H52.0371V20.0566C49.5131 24.8112 45.3966 28.5862 40.4004 30.667V26.6846C44.7143 24.3606 48.0792 20.4231 49.7383 15.7227H41.1758V12.2227H52.0371V8.33301H55.917V12.2227Z" fill="white"/>
<path d="M12.221 8.44114C16.7658 3.89641 24.1343 3.89641 28.6791 8.44114C33.2236 12.9859 33.2237 20.3545 28.6791 24.8991L21.2416 32.3366C20.8046 32.7736 20.0955 32.7736 19.6585 32.3366L12.221 24.8991C7.67632 20.3544 7.67632 12.9859 12.221 8.44114ZM30.1029 16.1687C29.7589 16.1635 29.4715 16.4201 29.432 16.7546L29.4271 16.823L29.4193 17.0993C29.3542 18.4837 28.9657 19.8743 28.224 21.1589C27.4823 22.4434 26.4724 23.4749 25.306 24.2234L25.0707 24.3689C24.7559 24.5577 24.6526 24.967 24.8412 25.282C25.018 25.577 25.3887 25.6853 25.6937 25.5427L25.7542 25.5105C27.2091 24.6391 28.4692 23.395 29.3763 21.8239C30.2266 20.351 30.6726 18.7529 30.7474 17.1618L30.7572 16.8445L30.7552 16.7761C30.7266 16.4403 30.4471 16.1742 30.1029 16.1687ZM27.4427 16.1238C27.0988 16.1185 26.8113 16.3752 26.7718 16.7097L26.7679 16.778L26.7611 16.9724C26.7153 17.9463 26.4423 18.9246 25.9203 19.8288C25.3982 20.7328 24.6879 21.4585 23.8675 21.9851L23.7015 22.0886C23.387 22.2775 23.2845 22.6859 23.473 23.0007C23.6499 23.2954 24.0197 23.4039 24.3246 23.2614L24.3851 23.2292C25.4647 22.5826 26.3997 21.6592 27.0726 20.4939C27.7033 19.4014 28.0346 18.2155 28.0902 17.0349L28.097 16.7995L28.0951 16.7312C28.0664 16.3954 27.787 16.1293 27.4427 16.1238ZM20.4496 11.6833C17.6952 11.6835 15.4623 13.9162 15.4623 16.6706C15.4626 19.4247 17.6954 21.6578 20.4496 21.6579C23.2039 21.6579 25.4365 19.4249 25.4369 16.6706C25.4369 13.9161 23.2041 11.6833 20.4496 11.6833ZM17.4261 10.3405C17.2492 10.0453 16.8797 9.93681 16.5746 10.0798L16.514 10.112C15.4346 10.7587 14.4993 11.6812 13.8265 12.8464C13.1958 13.9389 12.8645 15.1248 12.8089 16.3054L12.8021 16.5417L12.8041 16.6101C12.833 16.9455 13.1125 17.2118 13.4564 17.2175C13.8004 17.2229 14.0877 16.9651 14.1273 16.6306L14.1312 16.5632L14.138 16.3679C14.1838 15.3941 14.457 14.4156 14.9789 13.5114C15.5008 12.6075 16.2113 11.8817 17.0316 11.3552L17.1976 11.2527C17.5126 11.064 17.6146 10.6556 17.4261 10.3405ZM16.058 8.0593C15.881 7.76394 15.5106 7.65547 15.2054 7.79856L15.1449 7.83078C13.6901 8.70219 12.4298 9.94539 11.5228 11.5163C10.6725 12.9893 10.2265 14.5873 10.1517 16.1784L10.1419 16.4968L10.1439 16.5652C10.1729 16.9005 10.4524 17.1669 10.7962 17.1726C11.1402 17.1779 11.4275 16.92 11.4671 16.5857L11.472 16.5183L11.4798 16.2409C11.5449 14.8566 11.9336 13.4659 12.6751 12.1814C13.4168 10.8969 14.4268 9.86541 15.5931 9.11692L15.8285 8.97141C16.1434 8.7828 16.2462 8.37431 16.058 8.0593Z" fill="white"/>
</svg>
