<svg width="16" height="16" viewBox="0 0 16 16" fill="none" xmlns="http://www.w3.org/2000/svg">
<path fill-rule="evenodd" clip-rule="evenodd" d="M8 15C11.866 15 15 11.866 15 8C15 4.13401 11.866 1 8 1C4.13401 1 1 4.13401 1 8C1 11.866 4.13401 15 8 15ZM8.5 3C8.5 2.72386 8.27614 2.5 8 2.5C7.72386 2.5 7.5 2.72386 7.5 3V7.79289L4.64645 10.6464C4.45118 10.8417 4.45118 11.1583 4.64645 11.3536C4.84171 11.5488 5.15829 11.5488 5.35355 11.3536L8.35355 8.35355C8.44732 8.25979 8.5 8.13261 8.5 8V3Z" fill="#4B5C9E"/>
</svg>
