<svg width="14" height="14" viewBox="0 0 14 14" fill="none" xmlns="http://www.w3.org/2000/svg">
<path fill-rule="evenodd" clip-rule="evenodd" d="M1.51421 1.38148C1.63988 1.30107 1.79787 1.29025 1.93334 1.35277L13.3083 6.60277C13.4633 6.67428 13.5625 6.82935 13.5625 7C13.5625 7.17065 13.4633 7.32572 13.3083 7.39723L1.93334 12.6472C1.79787 12.7098 1.63988 12.6989 1.51421 12.6185C1.38853 12.5381 1.3125 12.3992 1.3125 12.25V7.875C1.3125 7.67425 1.44913 7.49925 1.64389 7.45056L3.44614 7L1.64389 6.54944C1.44913 6.50075 1.3125 6.32576 1.3125 6.125V1.75C1.3125 1.6008 1.38853 1.46189 1.51421 1.38148ZM2.1875 2.43377V5.78341L5.35611 6.57556C5.55087 6.62425 5.6875 6.79925 5.6875 7C5.6875 7.20076 5.55087 7.37575 5.35611 7.42444L2.1875 8.21659V11.5662L12.081 7L2.1875 2.43377Z" fill="white"/>
</svg>
