<svg width="400" height="120" viewBox="0 0 400 120" fill="none" xmlns="http://www.w3.org/2000/svg">
<path d="M328.833 43.667H370.833V54.166H328.842C328.868 62.2795 328.991 67.9739 329.583 72.3818C330.264 77.4417 331.362 79.0279 332.25 79.916C333.139 80.8041 334.725 83.0697 339.786 83.75C345.181 84.4754 352.505 84.5 363.833 84.5C367.3 84.5 370.391 84.4937 373.167 84.4697V94.9717C370.296 94.996 367.193 95 363.833 95C341.835 95 330.836 94.9999 324.001 88.166C317.167 81.3318 317.167 70.3319 317.167 48.333V25H328.833V43.667ZM363.833 36.667H356.833V25H363.833V36.667ZM373.167 36.667H366.167V25H373.167V36.667Z" fill="black"/>
<path d="M293.833 36.667C293.833 39.1872 293.832 41.5124 293.823 43.667H305.5V54.166H293.631C293.379 59.898 292.813 64.0214 291.542 67.6533C287.438 79.3824 278.216 88.6037 266.487 92.708C261.728 94.3732 256.125 94.8258 247.166 94.9502V84.4395C255.723 84.3134 259.565 83.9369 262.633 82.8633C271.011 79.9317 277.598 72.1778 280.53 63.7998C281.321 61.5367 281.732 58.8528 281.946 54.166H247.166V43.667H282.151C282.162 41.5705 282.166 39.2485 282.166 36.667V25H293.833V36.667Z" fill="black"/>
<path d="M204 53.6816C205.868 53.5418 207.772 53.5482 209.699 53.7168L239 56.2793V66.8242L208.683 64.1729C207.093 64.0338 205.527 64.0773 204 64.2812V95H192.333V25H204V53.6816Z" fill="black"/>
<path d="M166.667 36.667H178.333V47.167H166.667V95H155V60.1699C147.409 74.4348 135.027 85.7616 120 92.0039V80.0547C132.975 73.0824 143.1 61.2698 148.09 47.167H122.333V36.667H155V25H166.667V36.667Z" fill="black"/>
<path d="M35.251 29.2509C48.9193 15.5826 71.0807 15.5826 84.749 29.2509C98.4174 42.9193 98.4174 65.0806 84.749 78.749L62.3799 101.118C61.0656 102.432 58.9343 102.432 57.6201 101.118L35.251 78.749C21.5827 65.0807 21.5827 42.9193 35.251 29.2509ZM89.0332 52.4892C87.9981 52.4727 87.1334 53.2465 87.0146 54.2529L87.001 54.458L86.9756 55.29C86.7801 59.4541 85.6137 63.6359 83.3828 67.5C81.1519 71.3639 78.1139 74.4644 74.6055 76.7158L73.8975 77.1543C72.9501 77.7218 72.6417 78.9509 73.209 79.8984C73.7411 80.7865 74.8538 81.1118 75.7715 80.6816L75.9521 80.5859C80.3284 77.965 84.1182 74.2256 86.8467 69.5C89.4046 65.0696 90.7448 60.2644 90.9697 55.4785L91 54.5215L90.9932 54.3174C90.9069 53.3074 90.0685 52.5059 89.0332 52.4892ZM81.0322 52.3554C79.9972 52.3392 79.1333 53.1117 79.0146 54.1181L79.001 54.3232L78.9824 54.9082C78.8448 57.8377 78.0244 60.7801 76.4541 63.5C74.8838 66.2196 72.7464 68.4005 70.2783 69.9843L69.7803 70.2939C68.833 70.8615 68.5246 72.0896 69.0918 73.0371C69.6238 73.9253 70.7365 74.2514 71.6543 73.8213L71.835 73.7246C75.0825 71.7797 77.895 69.0054 79.9189 65.5C81.8163 62.2136 82.8116 58.6481 82.9785 55.0967L83 54.3867L82.9932 54.1816C82.9067 53.1718 82.0675 52.372 81.0322 52.3554ZM60 39C51.7158 39 45.0001 45.7158 45 54C45.0002 62.2841 51.7159 68.9999 60 69C68.2842 69 74.9998 62.2841 75 54C74.9999 45.7158 68.2842 39 60 39ZM50.9082 34.9629C50.3762 34.0747 49.2634 33.7476 48.3457 34.1777L48.165 34.2744C44.9174 36.2193 42.105 38.9945 40.081 42.5C38.1839 45.7861 37.1884 49.3511 37.0215 52.9023L37 53.6123L37.0068 53.8174C37.0931 54.8273 37.9324 55.6279 38.9678 55.6445C40.003 55.6608 40.8669 54.8875 40.9853 53.8808L40.999 53.6767L41.0176 53.0908C41.1552 50.1613 41.9756 47.2198 43.5459 44.5C45.1162 41.7801 47.2534 39.5985 49.7217 38.0146L50.2197 37.706C51.1672 37.1386 51.4753 35.9104 50.9082 34.9629ZM46.791 28.1006C46.2589 27.2126 45.1461 26.8873 44.2285 27.3174L44.0469 27.4131C39.6705 30.034 35.8817 33.7743 33.1533 38.5C30.5955 42.9303 29.2542 47.7347 29.0293 52.5205L28.999 53.4775L29.0068 53.6816C29.093 54.6916 29.9315 55.493 30.9668 55.5097C32.0019 55.5262 32.8656 54.7525 32.9844 53.7461L32.998 53.541L33.0244 52.709C33.2199 48.545 34.3864 44.3639 36.6172 40.5C38.8481 36.636 41.886 33.5346 45.3945 31.2832L46.1016 30.8447C47.0492 30.2772 47.3585 29.0482 46.791 28.1006Z" fill="black"/>
</svg>
