<svg width="16" height="16" viewBox="0 0 16 16" fill="none" xmlns="http://www.w3.org/2000/svg">
<path d="M1 6C1 11 8 15 8 15C8 15 15 11 15 6C15 4 13.5 2 11.5 2C8.5 2 8 5 8 5C8 5 7.5 2 4.5 2C2.5 2 1 4 1 6Z" fill="#1F1F21"/>
<path d="M8.24805 15.4346C8.09444 15.5222 7.90556 15.5222 7.75195 15.4346L8 15L8.24805 15.4346ZM14.5 6C14.5 5.11997 14.168 4.23266 13.6162 3.57031C13.0664 2.91053 12.3232 2.5 11.5 2.5C10.2025 2.5 9.46978 3.1342 9.04102 3.77734C8.82201 4.10585 8.68345 4.43793 8.59961 4.68945C8.55795 4.81442 8.53026 4.91764 8.51367 4.9873C8.50545 5.02188 8.50034 5.04812 8.49707 5.06445C8.49547 5.07247 8.49373 5.07797 8.49316 5.08105V5.08301C8.49317 5.08298 8.4932 5.08223 8.49219 5.08203C8.45201 5.32313 8.24442 5.5 8 5.5C7.75558 5.5 7.54702 5.32313 7.50684 5.08203V5.08105C7.50627 5.07797 7.50453 5.07247 7.50293 5.06445C7.49966 5.04812 7.49455 5.02188 7.48633 4.9873C7.46974 4.91764 7.44205 4.81442 7.40039 4.68945C7.31655 4.43793 7.17799 4.10585 6.95898 3.77734C6.53022 3.1342 5.79747 2.5 4.5 2.5C3.67679 2.5 2.93361 2.91053 2.38379 3.57031C1.83195 4.23266 1.5 5.11997 1.5 6C1.5 8.27792 3.10852 10.4011 4.83984 12.0088C5.69252 12.8006 6.54783 13.442 7.19043 13.8857C7.51117 14.1072 7.77838 14.2781 7.96387 14.3936C7.97613 14.4012 7.98846 14.4079 8 14.415C8.01154 14.4079 8.02387 14.4012 8.03613 14.3936C8.22162 14.2781 8.48883 14.1072 8.80957 13.8857C9.45217 13.442 10.3075 12.8006 11.1602 12.0088C12.8915 10.4011 14.5 8.27792 14.5 6ZM15.5 6C15.5 8.72203 13.6085 11.0989 11.8398 12.7412C10.9427 13.5743 10.0478 14.2455 9.37793 14.708C9.0426 14.9395 8.7627 15.1204 8.56543 15.2432C8.46676 15.3046 8.38793 15.3517 8.33398 15.3838C8.3072 15.3997 8.28593 15.4115 8.27148 15.4199C8.26435 15.4241 8.25884 15.4274 8.25488 15.4297C8.25289 15.4308 8.25116 15.432 8.25 15.4326L8.24902 15.4336H8.24805C8.24575 15.4299 8.22374 15.3915 8 15C7.77626 15.3915 7.75425 15.4299 7.75195 15.4336H7.75098L7.75 15.4326C7.74884 15.432 7.74711 15.4308 7.74512 15.4297C7.74116 15.4274 7.73565 15.4241 7.72852 15.4199C7.71407 15.4115 7.6928 15.3997 7.66602 15.3838C7.61207 15.3517 7.53324 15.3046 7.43457 15.2432C7.2373 15.1204 6.9574 14.9395 6.62207 14.708C5.95222 14.2455 5.05735 13.5743 4.16016 12.7412C2.39153 11.0989 0.5 8.72203 0.5 6C0.5 4.88016 0.91819 3.76731 1.61621 2.92969C2.31638 2.08962 3.32335 1.5 4.5 1.5C6.20253 1.5 7.21978 2.3658 7.79102 3.22266C7.86886 3.33943 7.93784 3.45628 8 3.57031C8.06216 3.45628 8.13114 3.33943 8.20898 3.22266C8.78022 2.3658 9.79747 1.5 11.5 1.5C12.6767 1.5 13.6836 2.08962 14.3838 2.92969C15.0818 3.76731 15.5 4.88016 15.5 6Z" fill="#1F1F21"/>
</svg>
