<svg width="16" height="16" viewBox="0 0 16 16" fill="none" xmlns="http://www.w3.org/2000/svg">
<path d="M15 1.5L15.1006 1.50977C15.3286 1.55629 15.5 1.75829 15.5 2V12C15.5 12.2761 15.2761 12.5 15 12.5H7.20703L4.35352 15.3535C4.21052 15.4965 3.99543 15.5393 3.80859 15.4619C3.62179 15.3845 3.5 15.2022 3.5 15V12.5H1C0.723858 12.5 0.5 12.2761 0.5 12V2L0.509766 1.89941C0.556292 1.67145 0.758287 1.5 1 1.5H15ZM1.5 11.5H4C4.27614 11.5 4.5 11.7239 4.5 12V13.793L6.64648 11.6465L6.72266 11.584C6.80419 11.5296 6.90056 11.5 7 11.5H14.5V2.5H1.5V11.5Z" fill="black"/>
<path d="M8.5 4V6.5H11V7.5H8.5V10H7.5V7.5H5V6.5H7.5V4H8.5Z" fill="black"/>
</svg>
