<svg width="16" height="16" viewBox="0 0 16 16" fill="none" xmlns="http://www.w3.org/2000/svg">
<path d="M15.1006 2.50977C15.3286 2.55629 15.5 2.75829 15.5 3V13C15.5 13.2761 15.2761 13.5 15 13.5H1C0.723858 13.5 0.5 13.2761 0.5 13V3L0.509766 2.89941C0.556292 2.67145 0.758287 2.5 1 2.5H15L15.1006 2.50977ZM1.5 11.207V12.5H14.5V11.207L12 8.70703L9.35352 11.3535C9.15825 11.5488 8.84175 11.5488 8.64648 11.3535L5 7.70703L1.5 11.207ZM1.5 9.79297L4.64648 6.64648L4.72461 6.58203C4.91869 6.45387 5.18265 6.47562 5.35352 6.64648L9 10.293L11.6465 7.64648L11.7246 7.58203C11.9187 7.45387 12.1827 7.47562 12.3535 7.64648L14.5 9.79297V3.5H1.5V9.79297ZM10 5C10.5523 5 11 5.44772 11 6C11 6.55228 10.5523 7 10 7C9.44771 7 9 6.55228 9 6C9 5.44772 9.44771 5 10 5Z" fill="#1F1F21"/>
</svg>
