<svg width="16" height="16" viewBox="0 0 16 16" fill="none" xmlns="http://www.w3.org/2000/svg">
<path fill-rule="evenodd" clip-rule="evenodd" d="M1.73052 1.57883C1.87415 1.48693 2.05471 1.47456 2.20953 1.54602L15.2095 7.54602C15.3866 7.62775 15.5 7.80497 15.5 8C15.5 8.19502 15.3866 8.37225 15.2095 8.45398L2.20953 14.454C2.05471 14.5254 1.87415 14.5131 1.73052 14.4212C1.58689 14.3293 1.5 14.1705 1.5 14V9C1.5 8.77057 1.65615 8.57057 1.87873 8.51493L3.93845 8L1.87873 7.48507C1.65615 7.42942 1.5 7.22943 1.5 7V2C1.5 1.82949 1.58689 1.67073 1.73052 1.57883ZM2.5 2.78145V6.60961L6.12127 7.51493C6.34385 7.57057 6.5 7.77057 6.5 8C6.5 8.22943 6.34385 8.42942 6.12127 8.48507L2.5 9.39039V13.2185L13.8068 8L2.5 2.78145Z" fill="#1F1F21"/>
</svg>
