<svg width="13" height="12" viewBox="0 0 13 12" fill="none" xmlns="http://www.w3.org/2000/svg">
<path fill-rule="evenodd" clip-rule="evenodd" d="M0.514208 0.381479C0.639883 0.301068 0.797872 0.290246 0.933338 0.352769L12.3083 5.60277C12.4633 5.67428 12.5625 5.82935 12.5625 6C12.5625 6.17065 12.4633 6.32572 12.3083 6.39723L0.933338 11.6472C0.797872 11.7098 0.639883 11.6989 0.514208 11.6185C0.388533 11.5381 0.3125 11.3992 0.3125 11.25V6.875C0.3125 6.67425 0.44913 6.49925 0.643891 6.45056L2.44614 6L0.643891 5.54944C0.44913 5.50075 0.3125 5.32576 0.3125 5.125V0.750001C0.3125 0.600803 0.388533 0.46189 0.514208 0.381479ZM1.1875 1.43377V4.78341L4.35611 5.57556C4.55087 5.62425 4.6875 5.79925 4.6875 6C4.6875 6.20076 4.55087 6.37575 4.35611 6.42444L1.1875 7.21659V10.5662L11.081 6L1.1875 1.43377Z" fill="white"/>
</svg>
