<svg width="24" height="24" viewBox="0 0 24 24" fill="none" xmlns="http://www.w3.org/2000/svg">
<g clip-path="url(#clip0_348_1974)">
<path d="M1.49657 11.8986L20.5885 3.41329L12.1032 22.5052L8.9212 15.0805L1.49657 11.8986Z" fill="#1F1F21"/>
<path fill-rule="evenodd" clip-rule="evenodd" d="M21.1188 2.88296C21.3382 3.1024 21.3999 3.43432 21.2738 3.7179L12.7885 22.8098C12.6674 23.0823 12.3964 23.2571 12.0982 23.2552C11.8 23.2532 11.5313 23.0747 11.4138 22.8006L8.35003 15.6517L1.20115 12.5879C0.927056 12.4705 0.748594 12.2018 0.746607 11.9036C0.744618 11.6054 0.919483 11.3343 1.19199 11.2132L20.2839 2.72793C20.5675 2.6019 20.8994 2.66353 21.1188 2.88296ZM3.37137 11.8861L9.21665 14.3912C9.39366 14.4671 9.53471 14.6081 9.61057 14.7851L12.1157 20.6304L19.1111 4.89062L3.37137 11.8861Z" fill="#1F1F21"/>
</g>
<defs>
<clipPath id="clip0_348_1974">
<rect width="24" height="24" fill="white"/>
</clipPath>
</defs>
</svg>
