<svg width="24" height="24" viewBox="0 0 24 24" fill="none" xmlns="http://www.w3.org/2000/svg">
<path fill-rule="evenodd" clip-rule="evenodd" d="M2.32082 2.68188C2.44425 2.41834 2.709 2.25 3.00001 2.25H21C21.291 2.25 21.5558 2.41834 21.6792 2.68188C21.8026 2.94542 21.7625 3.25658 21.5762 3.48014L14.25 12.2715V19.5C14.25 19.6989 14.171 19.8897 14.0303 20.0303L11.0303 23.0303C10.8158 23.2448 10.4933 23.309 10.213 23.1929C9.93274 23.0768 9.75001 22.8033 9.75001 22.5V12.2715L2.42384 3.48014C2.23754 3.25658 2.19738 2.94542 2.32082 2.68188ZM4.60129 3.75L11.0762 11.5199C11.1885 11.6546 11.25 11.8245 11.25 12V20.6893L12.75 19.1893V12C12.75 11.8245 12.8115 11.6546 12.9238 11.5199L19.3987 3.75H4.60129Z" fill="#1F1F21"/>
</svg>
