<svg width="16" height="16" viewBox="0 0 16 16" fill="none" xmlns="http://www.w3.org/2000/svg">
<g clip-path="url(#clip0_939_10651)">
<path d="M1.98952 14.0104C0.622687 12.6436 0.622687 10.4275 1.98952 9.06066L4.81795 6.23224L5.52506 6.93934L2.69663 9.76777C1.72032 10.7441 1.72032 12.327 2.69663 13.3033C3.67294 14.2796 5.25585 14.2796 6.23216 13.3033L9.06059 10.4749L9.7677 11.182L6.93927 14.0104C5.57243 15.3772 3.35636 15.3772 1.98952 14.0104Z" fill="#1F1F21"/>
<path d="M14.0105 1.98959C15.3773 3.35643 15.3773 5.5725 14.0105 6.93934L11.1821 9.76777L10.4749 9.06066L13.3034 6.23223C14.2797 5.25592 14.2797 3.67301 13.3034 2.6967C12.3271 1.72039 10.7441 1.72039 9.76784 2.6967L6.93941 5.52513L6.2323 4.81802L9.06073 1.98959C10.4276 0.622757 12.6436 0.622757 14.0105 1.98959Z" fill="#1F1F21"/>
<path d="M10.475 4.81802L11.1821 5.52513L5.52522 11.182L4.81812 10.4749L10.475 4.81802Z" fill="#1F1F21"/>
</g>
<defs>
<clipPath id="clip0_939_10651">
<rect width="16" height="16" fill="white"/>
</clipPath>
</defs>
</svg>
