<svg width="16" height="16" viewBox="0 0 16 16" fill="none" xmlns="http://www.w3.org/2000/svg">
<path fill-rule="evenodd" clip-rule="evenodd" d="M13.3335 0.627435C13.4394 0.722285 13.5 0.857777 13.5 0.999999V13H12.5V4.55863L4.5 5.44752V14H3.5V2C3.5 1.74522 3.69157 1.53119 3.94478 1.50306L12.9448 0.503057C13.0861 0.487351 13.2275 0.532584 13.3335 0.627435ZM4.5 4.44137L12.5 3.55248V1.55863L4.5 2.44752V4.44137Z" fill="#1F1F21"/>
<path d="M4 14C4 14.5523 3.55228 15 3 15C2.44772 15 2 14.5523 2 14C2 13.4477 2.44772 13 3 13C3.55228 13 4 13.4477 4 14Z" fill="#1F1F21"/>
<path fill-rule="evenodd" clip-rule="evenodd" d="M3 13.5C2.72386 13.5 2.5 13.7239 2.5 14C2.5 14.2761 2.72386 14.5 3 14.5C3.27614 14.5 3.5 14.2761 3.5 14C3.5 13.7239 3.27614 13.5 3 13.5ZM1.5 14C1.5 13.1716 2.17157 12.5 3 12.5C3.82843 12.5 4.5 13.1716 4.5 14C4.5 14.8284 3.82843 15.5 3 15.5C2.17157 15.5 1.5 14.8284 1.5 14Z" fill="#1F1F21"/>
<path d="M13 13C13 13.5523 12.5523 14 12 14C11.4477 14 11 13.5523 11 13C11 12.4477 11.4477 12 12 12C12.5523 12 13 12.4477 13 13Z" fill="#1F1F21"/>
<path fill-rule="evenodd" clip-rule="evenodd" d="M12 12.5C11.7239 12.5 11.5 12.7239 11.5 13C11.5 13.2761 11.7239 13.5 12 13.5C12.2761 13.5 12.5 13.2761 12.5 13C12.5 12.7239 12.2761 12.5 12 12.5ZM10.5 13C10.5 12.1716 11.1716 11.5 12 11.5C12.8284 11.5 13.5 12.1716 13.5 13C13.5 13.8284 12.8284 14.5 12 14.5C11.1716 14.5 10.5 13.8284 10.5 13Z" fill="#1F1F21"/>
</svg>
