<svg width="14" height="14" viewBox="0 0 14 14" fill="none" xmlns="http://www.w3.org/2000/svg">
<g clip-path="url(#clip0_54_1323)">
<path fill-rule="evenodd" clip-rule="evenodd" d="M9.21859 9.21859C10.9271 7.51004 10.9271 4.73995 9.21859 3.0314C7.51005 1.32286 4.73995 1.32286 3.03141 3.0314C1.32286 4.73995 1.32286 7.51004 3.03141 9.21859C4.73995 10.9271 7.51005 10.9271 9.21859 9.21859ZM9.83731 9.83731C11.8876 7.78705 11.8876 4.46294 9.83731 2.41269C7.78706 0.362433 4.46294 0.362433 2.41269 2.41269C0.362437 4.46294 0.362437 7.78705 2.41269 9.83731C4.46294 11.8876 7.78706 11.8876 9.83731 9.83731Z" fill="#FEFCF6"/>
<path d="M8.90923 9.52795L9.52795 8.90923L13.2403 12.6215L12.6215 13.2403L8.90923 9.52795Z" fill="#FEFCF6"/>
</g>
<defs>
<clipPath id="clip0_54_1323">
<rect width="14" height="14" fill="white"/>
</clipPath>
</defs>
</svg>
