<svg width="16" height="16" viewBox="0 0 16 16" fill="none" xmlns="http://www.w3.org/2000/svg">
<path fill-rule="evenodd" clip-rule="evenodd" d="M8 15C11.866 15 15 11.866 15 8C15 4.13401 11.866 1 8 1C4.13401 1 1 4.13401 1 8C1 11.866 4.13401 15 8 15ZM5.40003 3.7C5.23434 3.47908 4.92094 3.43431 4.70003 3.6C4.47912 3.76568 4.43434 4.07909 4.60003 4.3L7.00003 7.5H5.00003C4.72389 7.5 4.50003 7.72386 4.50003 8C4.50003 8.27614 4.72389 8.5 5.00003 8.5H7.50003V9.5H5.00003C4.72389 9.5 4.50003 9.72386 4.50003 10C4.50003 10.2761 4.72389 10.5 5.00003 10.5H7.50003V13C7.50003 13.2761 7.72389 13.5 8.00003 13.5C8.27617 13.5 8.50003 13.2761 8.50003 13V10.5H11C11.2762 10.5 11.5 10.2761 11.5 10C11.5 9.72386 11.2762 9.5 11 9.5H8.50003V8.5H11C11.2762 8.5 11.5 8.27614 11.5 8C11.5 7.72386 11.2762 7.5 11 7.5H9.00003L11.4 4.3C11.5657 4.07909 11.5209 3.76568 11.3 3.6C11.0791 3.43431 10.7657 3.47908 10.6 3.7L8.00003 7.16667L5.40003 3.7Z" fill="#4B5C9E"/>
</svg>
